# xmcd
#
# Track frame offsets: 
#        150
#        5292
#        14465
#        27510
#        38930
#        47505
#        66582
#        74167
#        89572
#        100710
#        110152
#        123792
#        148110
#        170420
#        196490
#        213532
#        243300
#        254457
#        275010
#        303825
#
# Disc length: 4107 seconds
#
# Revision: 0
# Processed by: cddbd v1.5.2PL0 Copyright (c) Steve Scherf et al.
# Submitted via: ExactAudioCopyFreeDBPlugin 1.0
#
DISCID=2e100914
DTITLE=SHAKIN' PIRANHAS - SHAKIN' PIRANHAS VOL.1
DYEAR=1900
DGENRE=Blues
TTITLE0=READ MY LIPS
TTITLE1=LAND OF 1000 DANCES
TTITLE2=DOWN SOUTH JUKIN'
TTITLE3=CHRISTINE KEILER
TTITLE4=HI DE HO
TTITLE5=WILD INJUNS
TTITLE6=PHONE CALL
TTITLE7=QUE LINDO ES BEBER
TTITLE8=JUANA LA CUBANA
TTITLE9=WHAT LOVE
TTITLE10=CHOO-CHOO-CH' BOOGIE
TTITLE11=LA LA LA LA
TTITLE12=PEOPLE SAY
TTITLE13=BACK TO NEW ORLEANS
TTITLE14=BOOGIE
TTITLE15=PULLING BULL
TTITLE16=PAROLE
TTITLE17=DON'T WAIT
TTITLE18=CAR STOP
TTITLE19=JOHN COLTRANE
EXTD=
EXTT0=
EXTT1=
EXTT2=
EXTT3=
EXTT4=
EXTT5=
EXTT6=
EXTT7=
EXTT8=
EXTT9=
EXTT10=
EXTT11=
EXTT12=
EXTT13=
EXTT14=
EXTT15=
EXTT16=
EXTT17=
EXTT18=
EXTT19=
PLAYORDER=
